<?xml version="1.0" standalone="no"?>
<!DOCTYPE svg PUBLIC "-//W3C//DTD SVG 20010904//EN"
 "http://www.w3.org/TR/2001/REC-SVG-20010904/DTD/svg10.dtd">
<svg version="1.0" xmlns="http://www.w3.org/2000/svg"
 width="16.000000pt" height="16.000000pt" viewBox="0 0 16.000000 16.000000"
 preserveAspectRatio="xMidYMid meet">
<metadata>
Created by potrace 1.11, written by Peter Selinger 2001-2013
</metadata>
<g transform="translate(0.000000,16.000000) scale(0.001600,-0.001600)"
fill="#000000" stroke="none">
<path d="M3129 7315 c-440 -62 -869 -278 -1304 -656 l-95 -82 0 -513 c0 -288
4 -514 9 -514 5 0 44 39 87 87 104 114 344 336 464 427 324 249 657 369 1055
383 136 4 179 2 289 -17 308 -52 663 -176 1239 -432 507 -225 775 -323 1102
-404 244 -60 398 -77 635 -71 123 3 239 11 290 21 444 83 824 266 1267 610
l92 71 1 538 c0 295 -3 537 -7 536 -5 0 -39 -36 -78 -81 -140 -160 -407 -380
-625 -516 -317 -197 -596 -286 -941 -299 -122 -5 -177 -2 -260 12 -309 51
-670 176 -1274 440 -584 256 -950 381 -1315 451 -118 22 -501 28 -631 9z"/>
<path d="M3245 4690 c-126 -11 -271 -37 -391 -71 -323 -90 -676 -295 -1021
-592 l-103 -88 0 -514 c0 -283 2 -515 5 -515 3 0 62 59 132 130 442 457 772
659 1213 745 113 22 403 31 511 16 301 -43 750 -198 1309 -451 524 -237 921
-372 1301 -442 108 -20 156 -23 364 -22 179 0 265 5 340 17 140 24 310 71 429
118 237 94 588 303 840 502 l86 67 0 539 0 539 -162 -162 c-187 -187 -274
-258 -481 -396 -353 -236 -699 -349 -1071 -350 -295 0 -756 143 -1474 459
-551 243 -922 372 -1250 435 -223 43 -376 52 -577 36z"/>
</g>
</svg>
